PathFileType	4	(X/Y/Z)	C:\Users\MAHE\Documents\generic-specific-tibial-stress-mtlb\PublicDataset\P01\Gait\WBDS01static1.trc
DataRate	CameraRate	NumFrames	NumMarkers	Units	OrigDataRate	OrigDataStartFrame	OrigNumFrames
150.000000	150.000000	7	28	mm	150.000000	112	150
Frame#	Time	L.Ankle			L.Ankle.Medial			L.ASIS			L.GTR			L.Heel			L.HF			L.Iliac.Crest			L.Knee			L.Knee.Medial			L.MT1			L.MT2			L.MT5			L.PSIS			L.TT			R.Ankle			R.Ankle.Medial			R.ASIS			R.GTR			R.Heel			R.HF			R.Iliac.Crest			R.Knee			R.Knee.Medial			R.MT1			R.MT2			R.MT5			R.PSIS			R.TT			
		X1	Y1	Z1	X2	Y2	Z2	X3	Y3	Z3	X4	Y4	Z4	X5	Y5	Z5	X6	Y6	Z6	X7	Y7	Z7	X8	Y8	Z8	X9	Y9	Z9	X10	Y10	Z10	X11	Y11	Z11	X12	Y12	Z12	X13	Y13	Z13	X14	Y14	Z14	X15	Y15	Z15	X16	Y16	Z16	X17	Y17	Z17	X18	Y18	Z18	X19	Y19	Z19	X20	Y20	Z20	X21	Y21	Z21	X22	Y22	Z22	X23	Y23	Z23	X24	Y24	Z24	X25	Y25	Z25	X26	Y26	Z26	X27	Y27	Z27	X28	Y28	Z28	

113	0.7466666666666667	691.14990234375	75.77183532714844	1043.00439453125	710.018798828125	86.93925476074219	1127.753051757813	808.7109985351563	955.3308715820313	1085.129028320313	719.52392578125	879.9619140625	1039.771728515625	635.9849853515625	47.6899528503418	1083.662231445313	702.2073974609375	432.5831604003906	1043.316040039063	722.9700317382813	1033.077270507813	1046.473510742188	722.3986206054688	494.9508666992188	1052.372436523438	726.7982177734375	486.4692077636719	1178.922607421875	841.6650390625	40.70965576171875	1102.096435546875	842.0411376953125	35.08912658691406	1073.164184570313	814.810791015625	28.73690986633301	1021.607849121094	618.9503173828125	1002.847045898438	1193.388427734375	761.6013793945313	419.5056762695313	1086.8857421875	689.2168579101563	73.03590393066406	1398.91259765625	706.0177001953125	91.73502349853516	1313.659423828125	812.4495239257813	954.1038818359375	1363.4140625	708.3599853515625	887.9649047851563	1404.176879882813	637.2264404296875	49.90737152099609	1348.978637695313	712.6976318359375	440.2833862304688	1403.302978515625	730.8594970703125	1032.311157226563	1404.058715820313	729.85302734375	495.7505187988281	1394.551879882813	732.3260498046875	481.4476318359375	1269.858520507813	842.7123413085938	42.56795883178711	1341.2626953125	842.7827758789063	36.97158813476563	1365.300415039063	810.1849365234375	31.43396759033203	1416.257568359375	620.7816162109375	1000.687805175781	1263.523559570313	769.369384765625	423.1757202148438	1347.270751953125	
114	0.7533333333333334	691.155029296875	75.77041625976563	1043.016845703125	710.0225830078125	86.94344329833984	1127.75439453125	808.772216796875	955.334228515625	1085.136840820313	719.5779418945313	879.9617309570313	1039.791870117188	635.98095703125	47.69124221801758	1083.662353515625	702.2286987304688	432.58203125	1043.332641601563	723.04296875	1033.075927734375	1046.483520507813	722.428466796875	494.9350280761719	1052.388916015625	726.81201171875	486.464111328125	1178.942993164063	841.6658935546875	40.69842910766602	1102.09912109375	842.0454711914063	35.08619689941406	1073.168212890625	814.8121337890625	28.74119567871094	1021.606140136719	619.0245971679688	1002.851196289063	1193.408447265625	761.6415405273438	419.5006103515625	1086.902954101563	689.2195434570313	73.03153991699219	1398.89990234375	706.0253295898438	91.7261962890625	1313.673950195313	812.5386352539063	954.10009765625	1363.423095703125	708.43408203125	887.9581909179688	1404.176025390625	637.2227783203125	49.92681884765625	1348.97216796875	712.6598510742188	440.2727661132813	1403.286010742188	730.9498901367188	1032.323486328125	1404.076782226563	729.8300170898438	495.7370300292969	1394.545288085938	732.3102416992188	481.4242553710938	1269.869995117188	842.707763671875	42.5582275390625	1341.276611328125	842.7753295898438	36.96822738647461	1365.323852539063	810.1876220703125	31.43683624267578	1416.265380859375	620.8768920898438	1000.693542480469	1263.549072265625	769.3360595703125	423.1660461425781	1347.286987304688	
115	0.76	691.1464233398438	75.76948547363281	1043.0234375	710.0237426757813	86.93888092041016	1127.766723632813	808.8290405273438	955.3291015625	1085.1416015625	719.6128540039063	879.9652099609375	1039.825073242188	635.9857177734375	47.69566345214844	1083.6669921875	702.2494506835938	432.5851745605469	1043.350830078125	723.1129150390625	1033.064819335938	1046.50439453125	722.4486083984375	494.9277648925781	1052.409057617188	726.8509521484375	486.4653015136719	1178.956909179688	841.6547241210938	40.70061111450195	1102.092651367188	842.0416259765625	35.08954238891602	1073.16943359375	814.8133544921875	28.7415885925293	1021.60400390625	619.100341796875	1002.852172851563	1193.439453125	761.6655883789063	419.4942321777344	1086.910278320313	689.216796875	73.02847290039063	1398.901733398438	706.017822265625	91.73284912109375	1313.656494140625	812.63818359375	954.0947875976563	1363.429077148438	708.5065307617188	887.9596557617188	1404.194580078125	637.2247924804688	49.93682098388672	1348.955444335938	712.629638671875	440.2694091796875	1403.263305664063	731.03125	1032.341552734375	1404.106811523438	729.7966918945313	495.7493896484375	1394.556640625	732.289306640625	481.413330078125	1269.870849609375	842.7176513671875	42.54564666748047	1341.285766601563	842.7794799804688	36.95525741577148	1365.331665039063	810.1799926757813	31.43213081359863	1416.266723632813	620.9638061523438	1000.708068847656	1263.584594726563	769.305908203125	423.168212890625	1347.281982421875	
116	0.7666666666666667	691.1488037109375	75.76340484619141	1043.03564453125	710.0233764648438	86.93767547607422	1127.774658203125	808.90185546875	955.3340454101563	1085.166259765625	719.6564331054688	879.9679565429688	1039.84423828125	635.9861450195313	47.69854736328125	1083.675903320313	702.261474609375	432.5823364257813	1043.36474609375	723.1704711914063	1033.063110351563	1046.524780273438	722.4625244140625	494.939697265625	1052.439819335938	726.8764038085938	486.4386596679688	1178.968139648438	841.6686401367188	40.69038772583008	1102.097534179688	842.0455322265625	35.08474731445313	1073.1708984375	814.8075561523438	28.74235534667969	1021.601623535156	619.1627197265625	1002.861938476563	1193.451782226563	761.6871337890625	419.4926147460938	1086.918334960938	689.2008666992188	73.03826904296875	1398.89208984375	706.0170288085938	91.73696899414063	1313.652465820313	812.7238159179688	954.0885009765625	1363.45068359375	708.5672607421875	887.9644775390625	1404.208984375	637.23486328125	49.94819641113281	1348.960693359375	712.5901489257813	440.2688293457031	1403.251708984375	731.1007080078125	1032.326171875	1404.131225585938	729.7694091796875	495.7510375976563	1394.571655273438	732.2832641601563	481.37548828125	1269.876586914063	842.7337036132813	42.52815628051758	1341.287475585938	842.7933959960938	36.94702911376953	1365.3369140625	810.1864624023438	31.42987060546875	1416.264892578125	621.0477905273438	1000.716491699219	1263.609741210938	769.2806396484375	423.17041015625	1347.290405273438	
117	0.7733333333333334	691.1423950195313	75.77597808837891	1043.042602539063	710.0216674804688	86.93641662597656	1127.774536132813	808.9496459960938	955.3267211914063	1085.172485351563	719.6948852539063	879.9717407226563	1039.88232421875	635.9832763671875	47.70069122314453	1083.692749023438	702.2763671875	432.5930786132813	1043.393798828125	723.2247924804688	1033.05078125	1046.549072265625	722.4904174804688	494.9400329589844	1052.45849609375	726.8952026367188	486.4248962402344	1178.98193359375	841.6665649414063	40.6884765625	1102.104614257813	842.0447998046875	35.08419036865234	1073.176391601563	814.814208984375	28.73806190490723	1021.614868164063	619.23876953125	1002.862976074219	1193.48486328125	761.6956787109375	419.4877624511719	1086.935302734375	689.2015991210938	73.04341125488281	1398.88525390625	706.03173828125	91.72888946533203	1313.660522460938	812.809326171875	954.0767211914063	1363.457275390625	708.6446533203125	887.9719848632813	1404.2216796875	637.239990234375	49.95003128051758	1348.934692382813	712.5573120117188	440.2783508300781	1403.22509765625	731.1776123046875	1032.322998046875	1404.153930664063	729.7384033203125	495.7422485351563	1394.570434570313	732.266845703125	481.4079895019531	1269.882446289063	842.7485961914063	42.5042839050293	1341.291259765625	842.7997436523438	36.9326057434082	1365.345092773438	810.193603515625	31.42195510864258	1416.278076171875	621.1240844726563	1000.715576171875	1263.641723632813	769.2424926757813	423.1606750488281	1347.302368164063	
118	0.78	691.1472778320313	75.77292633056641	1043.04931640625	710.0177001953125	86.93946075439453	1127.787963867188	809.019775390625	955.3252563476563	1085.1728515625	719.7399291992188	879.956787109375	1039.914672851563	635.9905395507813	47.70014953613281	1083.694946289063	702.291259765625	432.59130859375	1043.417358398438	723.2677001953125	1033.041625976563	1046.58544921875	722.5032958984375	494.9170532226563	1052.494018554688	726.925048828125	486.4294738769531	1178.996215820313	841.6773071289063	40.68226623535156	1102.1064453125	842.0481567382813	35.08196258544922	1073.18115234375	814.8096923828125	28.7400074005127	1021.613647460938	619.3048095703125	1002.859436035156	1193.5224609375	761.7160034179688	419.4910888671875	1086.952392578125	689.2006225585938	73.0399169921875	1398.88134765625	706.0197143554688	91.72679138183594	1313.651123046875	812.8873291015625	954.0765380859375	1363.471557617188	708.7200927734375	887.9707641601563	1404.24951171875	637.2434692382813	49.95691680908203	1348.934448242188	712.5166015625	440.2789001464844	1403.228759765625	731.2369384765625	1032.309448242188	1404.200805664063	729.7189331054688	495.7388000488281	1394.578369140625	732.2560424804688	481.3914794921875	1269.87890625	842.7545166015625	42.4950065612793	1341.297607421875	842.8008422851563	36.92257690429688	1365.349731445313	810.1907958984375	31.42455863952637	1416.269897460938	621.2178344726563	1000.72412109375	1263.671630859375	769.2167358398438	423.164306640625	1347.300903320313	
119	0.7866666666666667	691.1422729492188	75.76775360107422	1043.057373046875	710.0244140625	86.93450164794922	1127.79345703125	809.0890502929688	955.3193969726563	1085.195068359375	719.7777709960938	879.9558715820313	1039.936645507813	635.9848022460938	47.70037078857422	1083.70654296875	702.299072265625	432.5940856933594	1043.441772460938	723.3198852539063	1033.042724609375	1046.612548828125	722.5233154296875	494.910400390625	1052.5078125	726.941650390625	486.3966979980469	1179.023315429688	841.679931640625	40.67460632324219	1102.106689453125	842.048095703125	35.08249664306641	1073.177001953125	814.7998657226563	28.74017333984375	1021.603271484375	619.3648681640625	1002.859558105469	1193.544067382813	761.7359619140625	419.4732360839844	1086.9794921875	689.1727294921875	73.04314422607422	1398.88330078125	706.0182495117188	91.73618316650391	1313.642211914063	812.97265625	954.0595092773438	1363.476196289063	708.7684326171875	887.973388671875	1404.269287109375	637.2407836914063	49.96801376342773	1348.929321289063	712.4566650390625	440.2669982910156	1403.213989257813	731.3020629882813	1032.303466796875	1404.201538085938	729.6748657226563	495.7409362792969	1394.6083984375	732.2353515625	481.3672485351563	1269.886962890625	842.7537231445313	42.48409652709961	1341.296752929688	842.797607421875	36.914306640625	1365.351684570313	810.1878662109375	31.42354202270508	1416.271484375	621.2879028320313	1000.744201660156	1263.695922851563	769.1869506835938	423.1648864746094	1347.3125	
